<?xml version="1.0" standalone="no"?><svg xmlns="http://www.w3.org/2000/svg" viewBox="0 0 1440 320"><path fill="#f3f4f5" fill-opacity="1" d="M0,128L17.1,106.7C34.3,85,69,43,103,21.3C137.1,0,171,0,206,37.3C240,75,274,149,309,176C342.9,203,377,181,411,192C445.7,203,480,245,514,234.7C548.6,224,583,160,617,154.7C651.4,149,686,203,720,197.3C754.3,192,789,128,823,128C857.1,128,891,192,926,186.7C960,181,994,107,1029,69.3C1062.9,32,1097,32,1131,58.7C1165.7,85,1200,139,1234,170.7C1268.6,203,1303,213,1337,197.3C1371.4,181,1406,139,1423,117.3L1440,96L1440,320L1422.9,320C1405.7,320,1371,320,1337,320C1302.9,320,1269,320,1234,320C1200,320,1166,320,1131,320C1097.1,320,1063,320,1029,320C994.3,320,960,320,926,320C891.4,320,857,320,823,320C788.6,320,754,320,720,320C685.7,320,651,320,617,320C582.9,320,549,320,514,320C480,320,446,320,411,320C377.1,320,343,320,309,320C274.3,320,240,320,206,320C171.4,320,137,320,103,320C68.6,320,34,320,17,320L0,320Z"></path></svg>